<svg xmlns="http://www.w3.org/2000/svg" viewBox="0 0 1000 780" preserveAspectRatio="none">
  <defs>
    <linearGradient id="edge"><stop stop-color="white" stop-opacity="0"/><stop offset=".035" stop-color="white" stop-opacity=".18"/><stop offset=".09" stop-color="white" stop-opacity=".78"/><stop offset=".17" stop-color="white"/><stop offset=".96" stop-color="white"/><stop offset="1" stop-color="white" stop-opacity=".3"/></linearGradient>
    <linearGradient id="vertical" x2="0" y2="1"><stop stop-color="white" stop-opacity=".25"/><stop offset=".055" stop-color="white"/><stop offset=".88" stop-color="white"/><stop offset="1" stop-color="white" stop-opacity="0"/></linearGradient>
    <mask id="fade" maskUnits="userSpaceOnUse" x="0" y="0" width="1000" height="780"><rect width="1000" height="780" fill="url(#vertical)"/></mask>
    <filter id="paper" x="-5%" y="-5%" width="110%" height="110%"><feTurbulence type="fractalNoise" baseFrequency=".018 .045" numOctaves="3" seed="8" result="grain"/><feDisplacementMap in="SourceGraphic" in2="grain" scale="14" xChannelSelector="R" yChannelSelector="G"/></filter>
  </defs>
  <g mask="url(#fade)"><path filter="url(#paper)" fill="url(#edge)" d="M85 47 C156 14 217 41 296 25 S443 16 532 28 S696 6 779 20 S922 23 982 51 L986 155 Q966 211 982 273 L991 361 Q966 424 984 486 L987 587 Q966 652 942 709 C864 736 785 710 716 739 S574 725 496 750 S343 731 269 746 S134 730 80 704 L34 673 Q56 620 31 575 L48 496 Q12 432 40 384 L20 302 Q49 246 34 189 L58 123 Z"/></g>
</svg>